<?xml version="1.0" standalone="no"?>
<!DOCTYPE svg PUBLIC "-//W3C//DTD SVG 20010904//EN"
 "http://www.w3.org/TR/2001/REC-SVG-20010904/DTD/svg10.dtd">
<svg version="1.0" xmlns="http://www.w3.org/2000/svg"
 width="225.000000pt" height="225.000000pt" viewBox="0 0 225.000000 225.000000"
 preserveAspectRatio="xMidYMid meet">

<g transform="translate(0.000000,225.000000) scale(0.100000,-0.100000)"
fill="#000000" stroke="none">
<path d="M300 1736 c0 -70 3 -86 15 -86 11 0 15 13 16 58 l1 57 16 -57 c22
-80 43 -78 68 5 l19 62 3 -62 c2 -47 7 -63 17 -63 12 0 15 17 15 86 l0 85 -27
-3 c-23 -3 -29 -10 -41 -55 -8 -29 -17 -53 -21 -53 -3 0 -13 24 -21 53 -12 41
-20 53 -38 55 -21 3 -22 1 -22 -82z"/>
<path d="M598 1735 c-24 -81 -24 -85 -7 -85 11 0 19 7 19 15 0 10 11 15 35 15
24 0 35 -5 35 -15 0 -8 8 -15 19 -15 17 0 17 4 -7 85 -22 72 -29 85 -47 85
-18 0 -25 -13 -47 -85z m60 8 c10 -31 10 -33 -13 -33 -22 0 -23 2 -12 35 6 19
11 34 12 32 1 -1 7 -17 13 -34z"/>
<path d="M900 1730 c0 -75 2 -88 15 -84 11 5 15 23 16 68 l1 61 20 -63 c25
-78 44 -79 68 -2 l18 55 1 -57 c1 -44 5 -58 16 -58 12 0 15 16 15 85 0 83 -1
85 -24 85 -20 0 -26 -9 -41 -62 l-18 -63 -20 63 c-16 54 -22 62 -43 62 -24 0
-24 -2 -24 -90z"/>
<path d="M1150 1805 c-10 -12 -10 -15 3 -15 8 0 20 7 27 15 10 12 10 15 -3 15
-8 0 -20 -7 -27 -15z"/>
<path d="M1530 1805 c0 -8 7 -15 15 -15 8 0 15 7 15 15 0 8 -7 15 -15 15 -8 0
-15 -7 -15 -15z"/>
<path d="M1123 1763 c-24 -9 -13 -23 16 -21 39 4 37 -14 -3 -27 -20 -6 -32
-18 -34 -31 -4 -31 18 -43 66 -37 40 5 42 7 42 39 0 56 -16 84 -47 83 -16 0
-34 -3 -40 -6z m57 -73 c0 -15 -38 -32 -45 -20 -3 5 -3 15 0 20 8 13 45 13 45
0z"/>
<path d="M1245 1747 c-21 -30 -19 -63 6 -88 14 -14 28 -19 45 -15 21 6 24 3
24 -19 0 -16 6 -25 15 -25 12 0 15 16 15 84 l0 83 -45 1 c-35 1 -48 -3 -60
-21z m70 -37 c0 -31 -3 -35 -25 -35 -29 0 -40 36 -19 61 21 26 44 12 44 -26z"/>
<path d="M1380 1716 c0 -63 8 -71 67 -71 l43 0 0 63 c0 48 -3 62 -15 62 -11 0
-15 -12 -15 -50 0 -47 -2 -50 -25 -50 -23 0 -25 3 -25 50 0 38 -4 50 -15 50
-11 0 -15 -13 -15 -54z"/>
<path d="M1530 1710 c0 -47 3 -60 15 -60 12 0 15 13 15 60 0 47 -3 60 -15 60
-12 0 -15 -13 -15 -60z"/>
<path d="M1600 1708 c0 -44 4 -58 14 -58 11 0 16 14 18 47 2 36 7 49 21 51 14
3 17 -4 17 -47 0 -39 4 -51 15 -51 13 0 15 11 13 58 l-3 57 -47 1 -48 1 0 -59z"/>
<path d="M1753 1763 c-25 -10 -12 -22 17 -16 42 8 40 -20 -2 -32 -25 -8 -34
-16 -36 -36 -4 -32 13 -40 62 -32 36 6 36 6 36 58 0 39 -4 54 -16 59 -18 7
-43 7 -61 -1z m47 -77 c0 -17 -27 -29 -35 -16 -4 6 -3 15 0 20 9 15 35 12 35
-4z"/>
<path d="M1872 1758 c-20 -20 -13 -38 24 -60 38 -22 34 -50 -4 -29 -14 7 -23
8 -27 1 -3 -5 6 -15 20 -22 56 -25 88 43 33 70 -35 16 -37 36 -4 28 28 -7 45
9 20 18 -25 9 -49 7 -62 -6z"/>
<path d="M510 1665 c0 -8 7 -15 15 -15 8 0 15 7 15 15 0 8 -7 15 -15 15 -8 0
-15 -7 -15 -15z"/>
<path d="M750 1665 c0 -8 7 -15 15 -15 8 0 15 7 15 15 0 8 -7 15 -15 15 -8 0
-15 -7 -15 -15z"/>
<path d="M980 1396 c-36 -8 -91 -24 -122 -36 l-58 -21 -21 -67 c-30 -96 -37
-247 -14 -348 27 -122 31 -127 132 -160 81 -27 100 -29 233 -29 131 1 153 4
227 28 96 32 101 39 128 161 23 101 16 252 -14 347 -23 73 -26 76 -151 113
-75 23 -257 29 -340 12z m348 -35 c97 -30 107 -40 125 -118 9 -37 19 -92 22
-121 7 -64 -10 -197 -33 -260 -17 -44 -20 -47 -85 -69 -99 -33 -216 -45 -312
-33 -82 10 -190 41 -218 63 -49 36 -69 301 -33 425 11 37 28 69 40 78 20 14
119 46 176 58 58 11 256 -3 318 -23z"/>
<path d="M1010 1359 c-90 -17 -162 -43 -175 -63 -42 -68 -53 -294 -18 -401
l19 -60 62 -22 c93 -34 213 -47 308 -34 82 12 204 47 204 60 0 16 -58 59 -103
75 -26 10 -61 29 -78 43 -27 23 -34 25 -98 18 -51 -5 -84 -2 -130 11 -34 9
-64 14 -68 10 -9 -8 27 -46 54 -57 12 -4 27 -18 33 -29 11 -21 11 -21 -22 -5
-40 21 -118 94 -118 112 0 10 25 18 89 26 13 2 45 87 32 87 -3 0 0 4 8 9 10 7
5 11 -18 16 -29 6 -44 25 -20 25 6 0 9 7 5 15 -7 18 5 20 23 3 10 -11 11 -10
6 5 -7 16 12 23 53 18 6 -1 12 3 12 10 0 11 -45 9 -110 -7 -24 -5 -25 -5 -5
11 11 9 19 23 17 31 -3 13 1 13 17 4 18 -9 21 -8 22 7 1 10 1 21 0 26 -2 15
48 6 59 -10 9 -15 10 -13 5 10 l-6 29 30 -21 c16 -12 34 -21 41 -21 21 0 60
-56 60 -87 0 -29 -44 -113 -60 -114 -8 -1 14 -5 50 -9 36 -3 66 -6 68 -5 1 1
-2 15 -8 30 -16 41 -2 44 31 7 32 -36 37 -52 14 -52 -14 0 -14 -3 -1 -22 8
-13 17 -34 21 -48 6 -19 99 -120 111 -120 5 0 23 105 28 159 6 57 -7 170 -26
235 -10 32 -19 42 -57 58 -96 41 -253 58 -361 37z m-23 -246 c-3 -10 -5 -4 -5
12 0 17 2 24 5 18 2 -7 2 -21 0 -30z"/>
<path d="M1103 1235 c-3 -9 -3 -18 -1 -21 3 -3 8 4 11 16 6 23 -1 27 -10 5z"/>
<path d="M1135 1200 c-3 -5 -15 -10 -25 -10 -32 0 -43 -100 -12 -106 7 -1 8 0
2 3 -13 6 -13 63 0 83 5 8 10 12 10 7 0 -4 10 -1 23 8 13 8 27 12 32 8 4 -5 5
-2 1 5 -9 15 -23 16 -31 2z"/>
<path d="M498 553 l-3 -68 -37 -3 c-50 -4 -49 -22 1 -22 53 0 71 26 71 102 0
44 -3 58 -15 58 -11 0 -15 -16 -17 -67z"/>
<path d="M1100 541 l0 -81 55 0 c46 0 60 4 80 25 30 29 33 73 6 106 -14 18
-31 23 -80 27 l-61 4 0 -81z m115 34 c14 -13 25 -31 25 -40 0 -27 -38 -55 -75
-55 l-35 0 0 60 0 60 30 0 c19 0 40 -9 55 -25z"/>
<path d="M582 578 c-29 -15 -39 -55 -21 -87 12 -21 23 -27 61 -29 39 -3 49 1
62 20 19 27 21 58 3 81 -15 22 -75 30 -105 15z m72 -21 c23 -17 18 -70 -7 -75
-55 -11 -88 27 -60 67 16 24 41 27 67 8z"/>
<path d="M727 583 c-4 -3 -7 -33 -7 -65 0 -45 3 -58 15 -58 9 0 15 9 15 25 0
23 4 25 40 25 36 0 40 -2 40 -25 0 -16 6 -25 15 -25 12 0 15 14 15 63 0 50 -3
64 -15 64 -10 0 -15 -10 -15 -29 0 -26 -3 -28 -40 -28 -38 0 -40 2 -40 30 0
29 -9 38 -23 23z"/>
<path d="M890 525 c0 -37 4 -65 10 -65 6 0 10 18 10 40 0 22 4 40 8 40 5 0 23
-18 41 -40 47 -59 61 -54 61 25 0 37 -4 65 -10 65 -5 0 -10 -20 -10 -45 0 -25
-2 -45 -5 -45 -2 0 -23 20 -46 45 -23 25 -45 45 -50 45 -5 0 -9 -29 -9 -65z"/>
<path d="M1280 525 l0 -65 60 0 c33 0 60 4 60 10 0 6 -20 10 -45 10 -33 0 -45
4 -45 15 0 10 11 15 35 15 19 0 35 5 35 10 0 6 -16 10 -35 10 -43 0 -50 29 -7
32 44 2 47 3 50 13 1 6 -23 11 -53 13 l-55 3 0 -66z"/>
<path d="M1420 525 l0 -65 60 0 c33 0 60 4 60 10 0 6 -20 10 -45 10 -33 0 -45
4 -45 15 0 10 11 15 35 15 19 0 35 5 35 10 0 6 -16 10 -35 10 -53 0 -47 28 8
32 60 4 48 22 -18 26 l-55 3 0 -66z"/>
<path d="M1567 583 c-4 -3 -7 -33 -7 -65 0 -45 3 -58 15 -58 9 0 15 9 15 25 0
18 5 25 19 25 10 0 26 -11 35 -25 9 -14 23 -25 31 -25 14 0 14 3 0 24 -14 21
-14 25 0 36 23 19 18 49 -11 60 -29 11 -87 13 -97 3z m96 -38 c1 -5 -15 -11
-35 -13 -27 -2 -38 1 -38 11 0 7 2 16 5 19 9 8 66 -6 68 -17z"/>
<path d="M1720 588 c-1 -2 -2 -31 -3 -66 l-2 -62 58 0 c31 0 57 4 57 10 0 6
-20 10 -45 10 -33 0 -45 4 -45 15 0 10 11 15 35 15 19 0 35 5 35 10 0 6 -16
10 -35 10 -24 0 -35 5 -35 15 0 11 12 15 45 15 33 0 45 4 45 15 0 12 -13 15
-55 15 -30 0 -55 -1 -55 -2z"/>
</g>
</svg>
