<?xml version="1.0" standalone="no"?>
<!DOCTYPE svg PUBLIC "-//W3C//DTD SVG 20010904//EN"
 "http://www.w3.org/TR/2001/REC-SVG-20010904/DTD/svg10.dtd">
<svg version="1.0" xmlns="http://www.w3.org/2000/svg"
 width="829.000000pt" height="140.000000pt" viewBox="0 0 829.000000 140.000000"
 preserveAspectRatio="xMidYMid meet">

<g transform="translate(0.000000,140.000000) scale(0.100000,-0.100000)"
fill="#000000" stroke="none">
<path d="M3804 672 c-59 -24 -108 -60 -127 -94 -24 -41 -24 -175 0 -216 21
-36 100 -92 130 -92 12 0 25 -4 28 -10 8 -13 286 -13 317 -1 13 6 45 13 71 16
l48 6 -3 87 -3 87 -34 -3 c-49 -4 -61 -18 -61 -73 0 -29 -6 -53 -15 -63 -31
-31 -233 -35 -285 -5 -65 37 -110 106 -110 169 0 34 25 95 48 118 48 48 181
66 292 41 104 -24 112 -24 108 2 -4 32 -50 40 -228 44 -108 3 -143 0 -176 -13z"/>
<path d="M4498 671 c-102 -35 -148 -98 -148 -201 0 -103 54 -174 157 -203 53
-15 289 -20 338 -8 22 6 59 13 83 17 l42 6 0 90 0 90 -37 -7 c-48 -8 -63 -28
-63 -80 0 -65 -20 -77 -138 -83 -116 -5 -158 5 -212 55 -50 44 -68 110 -50
182 19 80 71 113 188 119 57 3 104 -1 153 -13 39 -9 77 -14 85 -11 24 9 16 35
-13 41 -16 3 -42 10 -59 15 -50 16 -272 10 -326 -9z"/>
<path d="M1931 648 c-12 -12 -23 -30 -27 -40 -3 -10 -10 -18 -15 -18 -5 0 -9
-5 -9 -11 0 -6 -13 -28 -29 -48 -15 -20 -59 -81 -96 -136 -38 -55 -73 -103
-79 -107 -15 -11 12 -28 31 -21 8 3 54 62 104 132 49 69 97 136 106 149 21 29
39 28 60 -5 10 -16 21 -32 26 -38 4 -5 42 -58 83 -117 41 -59 80 -110 85 -113
12 -8 109 -9 116 -1 3 3 -2 12 -11 21 -9 9 -21 26 -27 37 -10 19 -208 299
-229 326 -17 20 -67 14 -89 -10z"/>
<path d="M2351 648 c-5 -13 -8 -102 -7 -198 l1 -175 50 0 50 0 3 148 c2 108 6
147 15 147 6 -1 50 -37 96 -80 48 -46 92 -80 104 -80 24 0 60 27 141 104 33
31 65 55 70 53 7 -2 12 -59 14 -149 l3 -146 42 -4 c23 -3 45 -2 50 2 4 3 6 94
5 201 l-3 194 -35 3 c-34 3 -43 -4 -145 -108 -61 -62 -118 -116 -128 -121 -15
-8 -37 10 -135 111 -103 104 -122 120 -150 120 -25 0 -35 -6 -41 -22z"/>
<path d="M3299 633 c-13 -21 -26 -40 -29 -43 -4 -3 -27 -34 -51 -70 -24 -36
-72 -105 -107 -153 -46 -63 -61 -92 -54 -99 19 -19 40 -1 104 92 117 169 148
210 160 210 7 0 45 -45 83 -100 152 -217 140 -206 204 -202 28 2 51 7 51 10 0
7 -107 163 -130 189 -5 7 -10 15 -10 17 0 3 -30 46 -66 96 -60 82 -69 90 -99
90 -28 0 -37 -6 -56 -37z"/>
<path d="M5072 653 l-32 -16 2 -181 3 -181 47 -3 47 -3 3 168 c4 251 4 253
-70 216z"/>
<path d="M5488 653 c6 -2 12 -9 12 -15 0 -6 11 -21 25 -34 14 -13 25 -30 25
-37 0 -8 7 -17 15 -21 8 -3 15 -12 15 -21 0 -8 5 -15 10 -15 6 0 10 -7 10 -15
0 -8 14 -28 30 -45 17 -17 30 -36 30 -42 0 -6 10 -21 23 -32 26 -26 45 -54 53
-78 5 -15 19 -18 88 -17 44 0 75 3 69 6 -7 2 -13 11 -13 19 0 8 -5 14 -10 14
-6 0 -15 11 -20 25 -5 14 -14 25 -20 25 -5 0 -10 6 -10 14 0 8 -4 16 -8 18
-10 4 -92 128 -92 139 0 5 -4 9 -9 9 -5 0 -20 17 -32 38 -13 20 -27 39 -31 40
-4 2 -8 10 -8 18 0 11 -18 14 -82 13 -46 0 -77 -3 -70 -6z"/>
<path d="M5740 650 c0 -5 5 -10 10 -10 6 0 10 -7 10 -15 0 -8 14 -28 30 -45
17 -17 30 -37 30 -45 0 -8 5 -15 10 -15 6 0 10 -6 10 -14 0 -8 7 -16 15 -20 8
-3 15 -15 15 -26 0 -11 7 -20 15 -20 8 0 15 -7 15 -15 0 -8 5 -15 10 -15 6 0
10 -6 10 -14 0 -8 7 -16 15 -20 8 -3 15 -12 15 -20 0 -8 12 -28 27 -45 26 -29
32 -31 94 -31 l67 0 -14 30 c-9 16 -20 30 -25 30 -5 0 -9 7 -9 15 0 8 -4 15
-10 15 -5 0 -12 11 -16 25 -3 14 -10 25 -15 25 -5 0 -9 7 -9 15 0 8 -7 15 -15
15 -8 0 -15 7 -15 15 0 8 -4 15 -9 15 -5 0 -13 10 -17 22 -3 12 -17 33 -30 47
-13 14 -24 31 -24 38 0 7 -5 13 -10 13 -6 0 -14 8 -17 18 -4 9 -12 23 -19 30
-15 15 -144 17 -144 2z"/>
<path d="M5988 653 c6 -2 12 -11 12 -19 0 -8 3 -14 8 -14 4 0 18 -18 32 -40
13 -22 28 -40 32 -40 4 0 8 -9 8 -20 0 -11 7 -23 15 -26 8 -4 15 -11 15 -16 0
-6 11 -21 25 -34 14 -13 25 -30 25 -39 0 -9 7 -18 15 -21 8 -4 15 -10 15 -15
0 -9 8 -21 38 -54 6 -7 12 -18 12 -24 0 -7 29 -11 76 -11 l76 0 -17 28 c-10
15 -24 31 -32 35 -7 4 -13 15 -13 23 0 8 -10 25 -22 37 -23 22 -42 49 -55 76
-3 7 -17 25 -29 39 -13 14 -24 31 -24 39 0 7 -7 16 -15 19 -8 4 -15 12 -15 20
0 8 -4 14 -10 14 -5 0 -12 11 -16 25 -6 24 -9 25 -88 24 -44 0 -75 -3 -68 -6z"/>
</g>
</svg>
